<svg xmlns="http://www.w3.org/2000/svg" xmlns:xlink="http://www.w3.org/1999/xlink" version="1.1" data-diagram-type="SEQUENCE" style="width:1107px;height:1548px;background:#FFFFFF;" width="1107px" height="1548px" viewBox="0 0 1107 1548" zoomAndPan="magnify" preserveAspectRatio="none" contentStyleType="text/css"><?plantuml 1.2026.8?><defs/><g font-family="sans-serif" lengthAdjust="spacing"><g class="title" data-source-line="23"><text x="462.752" y="28.132" fill="#000" font-size="14" textLength="179.71" font-weight="700" font-family="Arial">UC-04 Build Weekly Roster</text></g><rect x="62.627" y="340.986" width="392.502" height="127.592" fill="none" style="stroke:#455A64;stroke-width:1.5;"/><rect x="32" y="486.578" width="1030.213" height="65.296" fill="none" style="stroke:#455A64;stroke-width:1.5;"/><rect x="13" y="569.874" width="1074.213" height="660.762" fill="none" style="stroke:#455A64;stroke-width:1.5;"/><rect x="43.627" y="603.071" width="688.26" height="281.184" fill="none" style="stroke:#455A64;stroke-width:1.5;"/><rect x="62.627" y="726.564" width="392.502" height="143.69" fill="none" style="stroke:#455A64;stroke-width:1.5;"/><rect x="32" y="902.255" width="1030.213" height="314.381" fill="none" style="stroke:#455A64;stroke-width:1.5;"/><rect x="32" y="1248.636" width="1030.213" height="65.296" fill="none" style="stroke:#455A64;stroke-width:1.5;"/><g><title>Manager</title><rect x="75.127" y="123.197" width="8" height="1414.523" fill="#000" fill-opacity="0"/><line x1="78.627" y1="123.197" x2="78.627" y2="1537.721" style="stroke:#607D8B;stroke-width:0.5;stroke-dasharray:5,5;"/></g><g><title>..boundary..</title><rect x="435.629" y="123.197" width="8" height="1414.523" fill="#000" fill-opacity="0"/><line x1="439.129" y1="123.197" x2="439.129" y2="1537.721" style="stroke:#607D8B;stroke-width:0.5;stroke-dasharray:5,5;"/></g><g><title></title><rect x="434.129" y="205.493" width="10" height="277.085" fill="#FFF" style="stroke:#181818;stroke-width:1;"/></g><g><title></title><rect x="434.129" y="654.367" width="10" height="229.888" fill="#FFF" style="stroke:#181818;stroke-width:1;"/></g><g><title></title><rect x="434.129" y="953.551" width="10" height="169.69" fill="#FFF" style="stroke:#181818;stroke-width:1;"/></g><g><title></title><rect x="434.129" y="1350.03" width="10" height="169.69" fill="#FFF" style="stroke:#181818;stroke-width:1;"/></g><g><title>..control..</title><rect x="707.387" y="123.197" width="8" height="1414.523" fill="#000" fill-opacity="0"/><line x1="710.887" y1="123.197" x2="710.887" y2="1537.721" style="stroke:#607D8B;stroke-width:0.5;stroke-dasharray:5,5;"/></g><g><title></title><rect x="705.887" y="235.592" width="10" height="93.395" fill="#FFF" style="stroke:#181818;stroke-width:1;"/></g><g><title></title><rect x="705.887" y="684.466" width="10" height="30.099" fill="#FFF" style="stroke:#181818;stroke-width:1;"/></g><g><title></title><rect x="705.887" y="983.649" width="10" height="93.395" fill="#FFF" style="stroke:#181818;stroke-width:1;"/></g><g><title></title><rect x="705.887" y="1380.129" width="10" height="93.395" fill="#FFF" style="stroke:#181818;stroke-width:1;"/></g><g><title>db.Database</title><rect x="1000.017" y="123.197" width="8" height="1414.523" fill="#000" fill-opacity="0"/><line x1="1003.517" y1="123.197" x2="1003.517" y2="1537.721" style="stroke:#607D8B;stroke-width:0.5;stroke-dasharray:5,5;"/></g><text x="48" y="120.23" fill="#000" font-size="14" textLength="55.255" font-family="Arial">Manager</text><ellipse cx="78.627" cy="55.599" rx="8" ry="8" fill="#FFF" style="stroke:#263238;stroke-width:0.5;"/><path d="M78.627,63.599 L78.627,90.599 M65.627,71.599 L91.627,71.599 M78.627,90.599 L65.627,105.599 M78.627,90.599 L91.627,105.599" style="stroke:#263238;stroke-width:0.5;" fill="none"/><rect x="354.709" y="76" width="168.841" height="46.197" fill="#EAF4FB" style="stroke:#455A64;stroke-width:0.5;" rx="2.5" ry="2.5"/><text x="402.154" y="96.132" fill="#000" font-size="14" textLength="73.951" font-style="italic" font-family="Arial">«boundary»</text><text x="361.709" y="112.23" fill="#000" font-size="14" textLength="154.841" font-family="Arial">rosterUI:RosterBoundary</text><rect x="640.867" y="76" width="140.041" height="46.197" fill="#FFF3DA" style="stroke:#455A64;stroke-width:0.5;" rx="2.5" ry="2.5"/><text x="682.091" y="96.132" fill="#000" font-size="14" textLength="57.593" font-style="italic" font-family="Arial">«control»</text><text x="647.867" y="112.23" fill="#000" font-size="14" textLength="126.041" font-family="Arial">roster:RosterControl</text><text x="960.821" y="120.23" fill="#000" font-size="14" textLength="79.393" font-family="Arial">db:Database</text><path d="M985.517,71.099 C985.517,61.099 1003.517,61.099 1003.517,61.099 C1003.517,61.099 1021.517,61.099 1021.517,71.099 L1021.517,97.099 C1021.517,107.099 1003.517,107.099 1003.517,107.099 C1003.517,107.099 985.517,107.099 985.517,97.099 L985.517,71.099" style="stroke:#181818;stroke-width:0.5;" fill="#F1F5F9"/><path d="M985.517,71.099 C985.517,81.099 1003.517,81.099 1003.517,81.099 C1003.517,81.099 1021.517,81.099 1021.517,71.099" style="stroke:#181818;stroke-width:0.5;" fill="none"/><path d="M46.966,136.197 L46.966,178.197 L1034.966,178.197 L1034.966,146.197 L1024.966,136.197 L46.966,136.197" style="stroke:#C8BE8A;stroke-width:0.5;" fill="#FFFBEA"/><path d="M1024.966,136.197 L1024.966,146.197 L1034.966,146.197 L1024.966,136.197" style="stroke:#C8BE8A;stroke-width:0.5;" fill="#FFFBEA"/><text x="410.107" y="154.329" fill="#000" font-size="14" textLength="252.93" font-family="Arial">Manager is logged in and selects a week</text><text x="410.107" y="170.428" fill="#000" font-size="14" textLength="225.688" font-family="Arial">within the five-week planning period.</text><polygon points="422.129,201.493,432.129,205.493,422.129,209.493,426.129,205.493" fill="#263238" style="stroke:#263238;stroke-width:1;stroke-linejoin:miter;stroke-miterlimit:10;"/><line x1="78.627" y1="205.493" x2="428.129" y2="205.493" style="stroke:#263238;stroke-width:1;"/><text x="85.627" y="200.526" fill="#000" font-size="14" textLength="133.854" font-family="Arial">openAllocation(week)</text><polygon points="693.887,231.592,703.887,235.592,693.887,239.592,697.887,235.592" fill="#263238" style="stroke:#263238;stroke-width:1;stroke-linejoin:miter;stroke-miterlimit:10;"/><line x1="444.129" y1="235.592" x2="699.887" y2="235.592" style="stroke:#263238;stroke-width:1;"/><text x="451.129" y="230.625" fill="#000" font-size="14" textLength="108.938" font-family="Arial">openWeek(week)</text><rect x="642.867" y="243.592" width="401.347" height="58.296" fill="none" style="stroke:#000;stroke-width:1.5;"/><path d="M642.867,243.592 L704.867,243.592 L704.867,251.592 L694.867,261.592 L642.867,261.592 L642.867,243.592" style="stroke:#000;stroke-width:2;" fill="#EEE"/><text x="655.867" y="258.724" fill="#000" font-size="14" textLength="17.896" font-weight="700" font-family="Arial">ref</text><text x="780.516" y="278.724" fill="#000" font-size="14" textLength="126.048" font-family="Arial">UC-04 / Open roster</text><text x="750.366" y="294.822" fill="#000" font-size="14" textLength="186.348" font-family="Arial">rosterView = loadWeek(week)</text><line x1="445.129" y1="328.986" x2="455.129" y2="324.986" style="stroke:#263238;stroke-width:1;"/><line x1="445.129" y1="328.986" x2="455.129" y2="332.986" style="stroke:#263238;stroke-width:1;"/><line x1="444.129" y1="328.986" x2="704.887" y2="328.986" style="stroke:#263238;stroke-width:1;stroke-dasharray:2,2;"/><text x="461.129" y="324.02" fill="#000" font-size="14" textLength="66.131" font-family="Arial">rosterView</text><path d="M62.627,340.986 L123.965,340.986 L123.965,349.085 L113.965,359.085 L62.627,359.085 L62.627,340.986" style="stroke:#455A64;stroke-width:1.5;" fill="#F8FAFC"/><rect x="62.627" y="340.986" width="392.502" height="127.592" fill="none" style="stroke:#455A64;stroke-width:1.5;"/><text x="77.627" y="355.118" fill="#000" font-size="14" textLength="16.338" font-weight="700" font-family="Arial">alt</text><text x="138.965" y="356.118" fill="#000" font-size="14" textLength="179.696" font-weight="700" font-family="Arial">[roster status is published]</text><line x1="79.627" y1="392.282" x2="89.627" y2="388.282" style="stroke:#263238;stroke-width:1;"/><line x1="79.627" y1="392.282" x2="89.627" y2="396.282" style="stroke:#263238;stroke-width:1;"/><line x1="78.627" y1="392.282" x2="433.129" y2="392.282" style="stroke:#263238;stroke-width:1;stroke-dasharray:2,2;"/><text x="95.627" y="387.315" fill="#000" font-size="14" textLength="59.938" font-family="Arial">published</text><text x="155.565" y="387.315" fill="#000" font-size="14" font-family="Arial"> </text><text x="159.455" y="387.315" fill="#000" font-size="14" textLength="39.676" font-family="Arial">roster;</text><text x="199.13" y="387.315" fill="#000" font-size="14" font-family="Arial"> </text><text x="203.02" y="387.315" fill="#000" font-size="14" textLength="80.931" font-family="Arial">amendments</text><text x="283.951" y="387.315" fill="#000" font-size="14" font-family="Arial"> </text><text x="287.84" y="387.315" fill="#000" font-size="14" textLength="22.572" font-family="Arial">use</text><text x="310.413" y="387.315" fill="#000" font-size="14" font-family="Arial"> </text><text x="314.302" y="387.315" fill="#000" font-size="14" textLength="40.455" font-family="Arial">UC-06</text><line x1="62.627" y1="401.282" x2="455.129" y2="401.282" style="stroke:#455A64;stroke-width:1;stroke-dasharray:2,2;"/><text x="67.627" y="416.414" fill="#000" font-size="14" textLength="144.696" font-weight="700" font-family="Arial">[roster status is draft]</text><line x1="79.627" y1="460.578" x2="89.627" y2="456.578" style="stroke:#263238;stroke-width:1;"/><line x1="79.627" y1="460.578" x2="89.627" y2="464.578" style="stroke:#263238;stroke-width:1;"/><line x1="78.627" y1="460.578" x2="433.129" y2="460.578" style="stroke:#263238;stroke-width:1;stroke-dasharray:2,2;"/><text x="95.627" y="439.513" fill="#000" font-size="14" textLength="28.014" font-family="Arial">draft</text><text x="123.641" y="439.513" fill="#000" font-size="14" font-family="Arial"> </text><text x="127.531" y="439.513" fill="#000" font-size="14" textLength="32.676" font-family="Arial">slots,</text><text x="160.207" y="439.513" fill="#000" font-size="14" font-family="Arial"> </text><text x="164.096" y="439.513" fill="#000" font-size="14" textLength="82.482" font-family="Arial">assignments,</text><text x="246.579" y="439.513" fill="#000" font-size="14" font-family="Arial"> </text><text x="250.468" y="439.513" fill="#000" font-size="14" textLength="64.586" font-family="Arial">availability</text><text x="95.627" y="455.611" fill="#000" font-size="14" textLength="23.358" font-family="Arial">and</text><text x="118.986" y="455.611" fill="#000" font-size="14" font-family="Arial"> </text><text x="122.875" y="455.611" fill="#000" font-size="14" textLength="30.345" font-family="Arial">roles</text><text x="153.22" y="455.611" fill="#000" font-size="14" font-family="Arial"> </text><text x="157.11" y="455.611" fill="#000" font-size="14" textLength="54.476" font-family="Arial">requiring</text><text x="211.585" y="455.611" fill="#000" font-size="14" font-family="Arial"> </text><text x="215.475" y="455.611" fill="#000" font-size="14" textLength="65.365" font-family="Arial">manpower</text><path d="M32,486.578 L114.358,486.578 L114.358,494.677 L104.358,504.677 L32,504.677 L32,486.578" style="stroke:#455A64;stroke-width:1.5;" fill="#F8FAFC"/><rect x="32" y="486.578" width="1030.213" height="65.296" fill="none" style="stroke:#455A64;stroke-width:1.5;"/><text x="47" y="500.71" fill="#000" font-size="14" textLength="37.358" font-weight="700" font-family="Arial">break</text><text x="129.358" y="501.71" fill="#000" font-size="14" textLength="179.696" font-weight="700" font-family="Arial">[roster status is published]</text><path d="M46.966,520.775 L46.966,546.775 L1034.966,546.775 L1034.966,530.775 L1024.966,520.775 L46.966,520.775" style="stroke:#C8BE8A;stroke-width:0.5;" fill="#FFFBEA"/><path d="M1024.966,520.775 L1024.966,530.775 L1034.966,530.775 L1024.966,520.775" style="stroke:#C8BE8A;stroke-width:0.5;" fill="#FFFBEA"/><text x="328.011" y="538.907" fill="#000" font-size="14" textLength="417.122" font-family="Arial">Further changes continue through UC-06 Amend Published Roster.</text><path d="M13,569.874 L87.545,569.874 L87.545,577.973 L77.545,587.973 L13,587.973 L13,569.874" style="stroke:#455A64;stroke-width:1.5;" fill="#F8FAFC"/><rect x="13" y="569.874" width="1074.213" height="660.762" fill="none" style="stroke:#455A64;stroke-width:1.5;"/><text x="28" y="584.006" fill="#000" font-size="14" textLength="29.545" font-weight="700" font-family="Arial">loop</text><text x="102.545" y="585.006" fill="#000" font-size="14" textLength="439.503" font-weight="700" font-family="Arial">[Manager continues allocation and no invalid-ambulance warning]</text><path d="M43.627,603.071 L118.172,603.071 L118.172,611.17 L108.172,621.17 L43.627,621.17 L43.627,603.071" style="stroke:#455A64;stroke-width:1.5;" fill="#F8FAFC"/><rect x="43.627" y="603.071" width="688.26" height="281.184" fill="none" style="stroke:#455A64;stroke-width:1.5;"/><text x="58.627" y="617.203" fill="#000" font-size="14" textLength="29.545" font-weight="700" font-family="Arial">loop</text><text x="133.172" y="618.203" fill="#000" font-size="14" textLength="483.103" font-weight="700" font-family="Arial">[first selection for this allocation or eligibleAmbulanceRecords is empty]</text><polygon points="422.129,650.367,432.129,654.367,422.129,658.367,426.129,654.367" fill="#263238" style="stroke:#263238;stroke-width:1;stroke-linejoin:miter;stroke-miterlimit:10;"/><line x1="78.627" y1="654.367" x2="428.129" y2="654.367" style="stroke:#263238;stroke-width:1;"/><text x="85.627" y="649.4" fill="#000" font-size="14" textLength="106.6" font-family="Arial">selectSlot(shiftId,</text><text x="192.227" y="649.4" fill="#000" font-size="14" font-family="Arial"> </text><text x="196.117" y="649.4" fill="#000" font-size="14" textLength="84.041" font-family="Arial">slotSelection)</text><polygon points="693.887,680.466,703.887,684.466,693.887,688.466,697.887,684.466" fill="#263238" style="stroke:#263238;stroke-width:1;stroke-linejoin:miter;stroke-miterlimit:10;"/><line x1="444.129" y1="684.466" x2="699.887" y2="684.466" style="stroke:#263238;stroke-width:1;"/><text x="451.129" y="679.499" fill="#000" font-size="14" textLength="106.6" font-family="Arial">selectSlot(shiftId,</text><text x="557.729" y="679.499" fill="#000" font-size="14" font-family="Arial"> </text><text x="561.619" y="679.499" fill="#000" font-size="14" textLength="84.041" font-family="Arial">slotSelection)</text><line x1="445.129" y1="714.564" x2="455.129" y2="710.564" style="stroke:#263238;stroke-width:1;"/><line x1="445.129" y1="714.564" x2="455.129" y2="718.564" style="stroke:#263238;stroke-width:1;"/><line x1="444.129" y1="714.564" x2="704.887" y2="714.564" style="stroke:#263238;stroke-width:1;stroke-dasharray:2,2;"/><text x="461.129" y="709.598" fill="#000" font-size="14" textLength="173.537" font-family="Arial">eligibleAmbulanceRecords[]</text><path d="M62.627,726.564 L123.965,726.564 L123.965,734.663 L113.965,744.663 L62.627,744.663 L62.627,726.564" style="stroke:#455A64;stroke-width:1.5;" fill="#F8FAFC"/><rect x="62.627" y="726.564" width="392.502" height="143.69" fill="none" style="stroke:#455A64;stroke-width:1.5;"/><text x="77.627" y="740.696" fill="#000" font-size="14" textLength="16.338" font-weight="700" font-family="Arial">alt</text><text x="138.965" y="741.696" fill="#000" font-size="14" textLength="249.73" font-weight="700" font-family="Arial">[eligibleAmbulanceRecords is empty]</text><line x1="79.627" y1="793.959" x2="89.627" y2="789.959" style="stroke:#263238;stroke-width:1;"/><line x1="79.627" y1="793.959" x2="89.627" y2="797.959" style="stroke:#263238;stroke-width:1;"/><line x1="78.627" y1="793.959" x2="433.129" y2="793.959" style="stroke:#263238;stroke-width:1;stroke-dasharray:2,2;"/><text x="95.627" y="772.894" fill="#000" font-size="14" textLength="15.572" font-family="Arial">no</text><text x="111.2" y="772.894" fill="#000" font-size="14" font-family="Arial"> </text><text x="115.089" y="772.894" fill="#000" font-size="14" textLength="43.586" font-family="Arial">eligible</text><text x="158.675" y="772.894" fill="#000" font-size="14" font-family="Arial"> </text><text x="162.565" y="772.894" fill="#000" font-size="14" textLength="72.379" font-family="Arial">ambulance;</text><text x="234.944" y="772.894" fill="#000" font-size="14" font-family="Arial"> </text><text x="238.833" y="772.894" fill="#000" font-size="14" textLength="47.482" font-family="Arial">another</text><text x="286.316" y="772.894" fill="#000" font-size="14" font-family="Arial"> </text><text x="290.206" y="772.894" fill="#000" font-size="14" textLength="25.676" font-family="Arial">shift</text><text x="315.881" y="772.894" fill="#000" font-size="14" font-family="Arial"> </text><text x="319.771" y="772.894" fill="#000" font-size="14" textLength="12.448" font-family="Arial">or</text><text x="332.219" y="772.894" fill="#000" font-size="14" font-family="Arial"> </text><text x="336.109" y="772.894" fill="#000" font-size="14" textLength="21.786" font-family="Arial">slot</text><text x="357.895" y="772.894" fill="#000" font-size="14" font-family="Arial"> </text><text x="361.785" y="772.894" fill="#000" font-size="14" textLength="26.448" font-family="Arial">may</text><text x="388.233" y="772.894" fill="#000" font-size="14" font-family="Arial"> </text><text x="392.123" y="772.894" fill="#000" font-size="14" textLength="15.572" font-family="Arial">be</text><text x="95.627" y="788.992" fill="#000" font-size="14" textLength="52.145" font-family="Arial">selected</text><line x1="62.627" y1="802.959" x2="455.129" y2="802.959" style="stroke:#455A64;stroke-width:1;stroke-dasharray:2,2;"/><text x="67.627" y="818.091" fill="#000" font-size="14" textLength="275.386" font-weight="700" font-family="Arial">[eligibleAmbulanceRecords is not empty]</text><line x1="79.627" y1="862.255" x2="89.627" y2="858.255" style="stroke:#263238;stroke-width:1;"/><line x1="79.627" y1="862.255" x2="89.627" y2="866.255" style="stroke:#263238;stroke-width:1;"/><line x1="78.627" y1="862.255" x2="433.129" y2="862.255" style="stroke:#263238;stroke-width:1;stroke-dasharray:2,2;"/><text x="95.627" y="841.189" fill="#000" font-size="14" textLength="40.462" font-family="Arial">active,</text><text x="136.089" y="841.189" fill="#000" font-size="14" font-family="Arial"> </text><text x="139.979" y="841.189" fill="#000" font-size="14" textLength="55.262" font-family="Arial">available</text><text x="195.241" y="841.189" fill="#000" font-size="14" font-family="Arial"> </text><text x="199.13" y="841.189" fill="#000" font-size="14" textLength="75.489" font-family="Arial">ambulances</text><text x="274.62" y="841.189" fill="#000" font-size="14" font-family="Arial"> </text><text x="278.509" y="841.189" fill="#000" font-size="14" textLength="24.896" font-family="Arial">with</text><text x="303.406" y="841.189" fill="#000" font-size="14" font-family="Arial"> </text><text x="307.295" y="841.189" fill="#000" font-size="14" textLength="15.572" font-family="Arial">no</text><text x="322.868" y="841.189" fill="#000" font-size="14" font-family="Arial"> </text><text x="326.757" y="841.189" fill="#000" font-size="14" textLength="31.91" font-family="Arial">other</text><text x="358.667" y="841.189" fill="#000" font-size="14" font-family="Arial"> </text><text x="362.557" y="841.189" fill="#000" font-size="14" textLength="64.572" font-family="Arial">same-shift</text><text x="95.627" y="857.288" fill="#000" font-size="14" textLength="21.786" font-family="Arial">slot</text><path d="M32,902.255 L93.338,902.255 L93.338,910.354 L83.338,920.354 L32,920.354 L32,902.255" style="stroke:#455A64;stroke-width:1.5;" fill="#F8FAFC"/><rect x="32" y="902.255" width="1030.213" height="314.381" fill="none" style="stroke:#455A64;stroke-width:1.5;"/><text x="47" y="916.387" fill="#000" font-size="14" textLength="16.338" font-weight="700" font-family="Arial">alt</text><text x="108.338" y="917.387" fill="#000" font-size="14" textLength="357.096" font-weight="700" font-family="Arial">[Manager chooses to remove an existing assignment]</text><polygon points="422.129,949.551,432.129,953.551,422.129,957.551,426.129,953.551" fill="#263238" style="stroke:#263238;stroke-width:1;stroke-linejoin:miter;stroke-miterlimit:10;"/><line x1="78.627" y1="953.551" x2="428.129" y2="953.551" style="stroke:#263238;stroke-width:1;"/><text x="85.627" y="948.584" fill="#000" font-size="14" textLength="225.661" font-family="Arial">removeAssignedRole(assignmentId)</text><polygon points="693.887,979.649,703.887,983.649,693.887,987.649,697.887,983.649" fill="#263238" style="stroke:#263238;stroke-width:1;stroke-linejoin:miter;stroke-miterlimit:10;"/><line x1="444.129" y1="983.649" x2="699.887" y2="983.649" style="stroke:#263238;stroke-width:1;"/><text x="451.129" y="978.683" fill="#000" font-size="14" textLength="242.758" font-family="Arial">removeDraftAssignment(assignmentId)</text><rect x="642.867" y="991.649" width="401.347" height="58.296" fill="none" style="stroke:#000;stroke-width:1.5;"/><path d="M642.867,991.649 L704.867,991.649 L704.867,999.649 L694.867,1009.649 L642.867,1009.649 L642.867,991.649" style="stroke:#000;stroke-width:2;" fill="#EEE"/><text x="655.867" y="1006.781" fill="#000" font-size="14" textLength="17.896" font-weight="700" font-family="Arial">ref</text><text x="737.72" y="1026.781" fill="#000" font-size="14" textLength="211.641" font-family="Arial">UC-04 / Remove draft assignment</text><text x="646.867" y="1042.88" fill="#000" font-size="14" textLength="393.347" font-family="Arial">staffingStatus = removeExisting(assignmentId, workingContext)</text><line x1="445.129" y1="1077.044" x2="455.129" y2="1073.044" style="stroke:#263238;stroke-width:1;"/><line x1="445.129" y1="1077.044" x2="455.129" y2="1081.044" style="stroke:#263238;stroke-width:1;"/><line x1="444.129" y1="1077.044" x2="704.887" y2="1077.044" style="stroke:#263238;stroke-width:1;stroke-dasharray:2,2;"/><text x="461.129" y="1072.077" fill="#000" font-size="14" textLength="148.62" font-family="Arial">removed(staffingStatus)</text><line x1="79.627" y1="1123.241" x2="89.627" y2="1119.241" style="stroke:#263238;stroke-width:1;"/><line x1="79.627" y1="1123.241" x2="89.627" y2="1127.241" style="stroke:#263238;stroke-width:1;"/><line x1="78.627" y1="1123.241" x2="433.129" y2="1123.241" style="stroke:#263238;stroke-width:1;stroke-dasharray:2,2;"/><text x="95.627" y="1102.176" fill="#000" font-size="14" textLength="71.593" font-family="Arial">assignment</text><text x="167.22" y="1102.176" fill="#000" font-size="14" font-family="Arial"> </text><text x="171.11" y="1102.176" fill="#000" font-size="14" textLength="54.469" font-family="Arial">removed</text><text x="225.579" y="1102.176" fill="#000" font-size="14" font-family="Arial"> </text><text x="229.468" y="1102.176" fill="#000" font-size="14" textLength="23.358" font-family="Arial">and</text><text x="252.827" y="1102.176" fill="#000" font-size="14" font-family="Arial"> </text><text x="256.716" y="1102.176" fill="#000" font-size="14" textLength="45.931" font-family="Arial">change</text><text x="302.647" y="1102.176" fill="#000" font-size="14" font-family="Arial"> </text><text x="306.537" y="1102.176" fill="#000" font-size="14" textLength="41.248" font-family="Arial">saved;</text><text x="95.627" y="1118.274" fill="#000" font-size="14" textLength="53.703" font-family="Arial">released</text><text x="149.331" y="1118.274" fill="#000" font-size="14" font-family="Arial"> </text><text x="153.22" y="1118.274" fill="#000" font-size="14" textLength="30.345" font-family="Arial">roles</text><text x="183.565" y="1118.274" fill="#000" font-size="14" font-family="Arial"> </text><text x="187.455" y="1118.274" fill="#000" font-size="14" textLength="43.579" font-family="Arial">require</text><text x="231.034" y="1118.274" fill="#000" font-size="14" font-family="Arial"> </text><text x="234.923" y="1118.274" fill="#000" font-size="14" textLength="65.365" font-family="Arial">manpower</text><line x1="32" y1="1132.241" x2="1062.213" y2="1132.241" style="stroke:#455A64;stroke-width:1;stroke-dasharray:2,2;"/><text x="37" y="1147.373" fill="#000" font-size="14" textLength="316.661" font-weight="700" font-family="Arial">[Manager fills a role or replaces an assignment]</text><rect x="50" y="1153.34" width="994.213" height="58.296" fill="none" style="stroke:#000;stroke-width:1.5;"/><path d="M50,1153.34 L112,1153.34 L112,1161.34 L102,1171.34 L50,1171.34 L50,1153.34" style="stroke:#000;stroke-width:2;" fill="#EEE"/><text x="63" y="1168.472" fill="#000" font-size="14" textLength="17.896" font-weight="700" font-family="Arial">ref</text><text x="482.524" y="1188.472" fill="#000" font-size="14" textLength="129.165" font-family="Arial">UC-04 / Allocate role</text><text x="290.503" y="1204.57" fill="#000" font-size="14" textLength="513.208" font-family="Arial">outcome = allocateRole(slotSelection, eligibleAmbulanceRecords, workingContext)</text><path d="M32,1248.636 L114.358,1248.636 L114.358,1256.734 L104.358,1266.734 L32,1266.734 L32,1248.636" style="stroke:#455A64;stroke-width:1.5;" fill="#F8FAFC"/><rect x="32" y="1248.636" width="1030.213" height="65.296" fill="none" style="stroke:#455A64;stroke-width:1.5;"/><text x="47" y="1262.768" fill="#000" font-size="14" textLength="37.358" font-weight="700" font-family="Arial">break</text><text x="129.358" y="1263.768" fill="#000" font-size="14" textLength="290.179" font-weight="700" font-family="Arial">[invalid-ambulance warning was presented]</text><path d="M46.966,1282.833 L46.966,1308.833 L1034.966,1308.833 L1034.966,1292.833 L1024.966,1282.833 L46.966,1282.833" style="stroke:#C8BE8A;stroke-width:0.5;" fill="#FFFBEA"/><path d="M1024.966,1282.833 L1024.966,1292.833 L1034.966,1292.833 L1024.966,1282.833" style="stroke:#C8BE8A;stroke-width:0.5;" fill="#FFFBEA"/><text x="373.146" y="1300.965" fill="#000" font-size="14" textLength="326.854" font-family="Arial">The draft contains an invalid ambulance assignment.</text><polygon points="422.129,1346.03,432.129,1350.03,422.129,1354.03,426.129,1350.03" fill="#263238" style="stroke:#263238;stroke-width:1;stroke-linejoin:miter;stroke-miterlimit:10;"/><line x1="78.627" y1="1350.03" x2="428.129" y2="1350.03" style="stroke:#263238;stroke-width:1;"/><text x="85.627" y="1345.063" fill="#000" font-size="14" textLength="101.917" font-family="Arial">saveDraft(week)</text><polygon points="693.887,1376.129,703.887,1380.129,693.887,1384.129,697.887,1380.129" fill="#263238" style="stroke:#263238;stroke-width:1;stroke-linejoin:miter;stroke-miterlimit:10;"/><line x1="444.129" y1="1380.129" x2="699.887" y2="1380.129" style="stroke:#263238;stroke-width:1;"/><text x="451.129" y="1375.162" fill="#000" font-size="14" textLength="101.917" font-family="Arial">saveDraft(week)</text><rect x="642.867" y="1388.129" width="401.347" height="58.296" fill="none" style="stroke:#000;stroke-width:1.5;"/><path d="M642.867,1388.129 L704.867,1388.129 L704.867,1396.129 L694.867,1406.129 L642.867,1406.129 L642.867,1388.129" style="stroke:#000;stroke-width:2;" fill="#EEE"/><text x="655.867" y="1403.261" fill="#000" font-size="14" textLength="17.896" font-weight="700" font-family="Arial">ref</text><text x="785.571" y="1423.261" fill="#000" font-size="14" textLength="115.938" font-family="Arial">UC-04 / Save draft</text><text x="692.791" y="1439.359" fill="#000" font-size="14" textLength="301.499" font-family="Arial">currentDraft = retainDraft(week, workingContext)</text><line x1="445.129" y1="1473.523" x2="455.129" y2="1469.523" style="stroke:#263238;stroke-width:1;"/><line x1="445.129" y1="1473.523" x2="455.129" y2="1477.523" style="stroke:#263238;stroke-width:1;"/><line x1="444.129" y1="1473.523" x2="704.887" y2="1473.523" style="stroke:#263238;stroke-width:1;stroke-dasharray:2,2;"/><text x="461.129" y="1468.557" fill="#000" font-size="14" textLength="150.944" font-family="Arial">draftSaved(currentDraft)</text><line x1="79.627" y1="1519.721" x2="89.627" y2="1515.721" style="stroke:#263238;stroke-width:1;"/><line x1="79.627" y1="1519.721" x2="89.627" y2="1523.721" style="stroke:#263238;stroke-width:1;"/><line x1="78.627" y1="1519.721" x2="433.129" y2="1519.721" style="stroke:#263238;stroke-width:1;stroke-dasharray:2,2;"/><text x="95.627" y="1498.655" fill="#000" font-size="14" textLength="42.793" font-family="Arial">weekly</text><text x="138.42" y="1498.655" fill="#000" font-size="14" font-family="Arial"> </text><text x="142.31" y="1498.655" fill="#000" font-size="14" textLength="35.786" font-family="Arial">roster</text><text x="178.096" y="1498.655" fill="#000" font-size="14" font-family="Arial"> </text><text x="181.986" y="1498.655" fill="#000" font-size="14" textLength="37.358" font-family="Arial">saved</text><text x="219.344" y="1498.655" fill="#000" font-size="14" font-family="Arial"> </text><text x="223.234" y="1498.655" fill="#000" font-size="14" textLength="14.786" font-family="Arial">as</text><text x="238.02" y="1498.655" fill="#000" font-size="14" font-family="Arial"> </text><text x="241.91" y="1498.655" fill="#000" font-size="14" textLength="31.903" font-family="Arial">draft;</text><text x="95.627" y="1514.754" fill="#000" font-size="14" textLength="44.365" font-family="Arial">unfilled</text><text x="139.993" y="1514.754" fill="#000" font-size="14" font-family="Arial"> </text><text x="143.882" y="1514.754" fill="#000" font-size="14" textLength="30.345" font-family="Arial">roles</text><text x="174.227" y="1514.754" fill="#000" font-size="14" font-family="Arial"> </text><text x="178.117" y="1514.754" fill="#000" font-size="14" textLength="43.579" font-family="Arial">require</text><text x="221.696" y="1514.754" fill="#000" font-size="14" font-family="Arial"> </text><text x="225.585" y="1514.754" fill="#000" font-size="14" textLength="65.365" font-family="Arial">manpower</text><?plantuml-src dLTjKnit4Fv-ls8d-G3Cs4xIG49Dmim1Tak7G6gJfZDDFyW-6MiYdwwI3aCx_UzzLhex7s13KcOoiQNTrRuy--nwhZ99CsFynDmaxglA2s75WYPY-lNAcZBFZeqsbfuFmrzB8fCpKMe_DBa_5mj9gLL2hxyVgxyblTfjNRgvoCnIvLSq4zh9rir2t7oGpeah6RHUxxrigyc_IfbFPIMHQdMLavOptv8vCZSVHPQnxVtMSMgjMLQn_F3czG-lsvVdnikZDH4V3TBxKiPcqbOIn_j7W_rqZN_qJq9qfcRoJELtLTwyV7koVuJRZy9wDLM5oFqTWTszlVJDxZs11wxj3zFXCOJIgJVsZduLMtsreOn4F-6qMFzol7hiJNKjl3BvUlNM_ORN_qsyybhIf-FkorqwAfNEwBEKN_KjZOppqYQ9OE_fWyXHPal20HVXOrAiqaBFR93-TDgFQaVybB2tprYXlgDtxoRL-U4XFH-amztXqJepbP5Z0DOQtR812zDuo0OGmEkJDCc45nFX93tB9lsJwajGoYOGUZNS6_wO95iq5ei2eMPoQXQ5SOhpSa0JEHVNofHMQ79JKyWEJLJEe7KayemShW2ZXIWAFklJQ92UV1Zq5baFDkldQ17xm569BtukoJ80uND6az81UyvrOTo6Qf2OE6-HsE21ax9jD0UsoLmZs2hH7SI1OjOLK8wqkRg2OPL73wMMKmzlQOdAGNAf_1ntxCLCNSik7rEXHPvpAy89PV2EX2g_bIJLEzGzR4hL9pYRfrgRQV1ucstiC1OOKBAHIvhQDifHbK6qNYcnSXRZYz-hy282Nz05b6j9gZxyfkIItYDiaRNiSW2mLRb0tUvXs_-LPfB9-ou8xMj4EIzywJYhHJdHoirbrhpBOR7LAa7zbKWbS43Wspp3Fnyhpr6yIII8zA7zp0hGuqRRuPgSDjvr05u7GWrsyULQA2qcIYj_-oNdagC103M6cB9SKnWfp1A1mPc7uQ9CWEhb73vuKtIrl9QQ9bQAhmHv5u02hjJe2TYAXL0v52D2EmmJe4iRKr30S1wmVmcrfdi2b4ZU-CRYpF8i4bFu06ngZT46iTKx6gIikJ5wIVJbqO9iwWgYOMdndANfNEJSW4mGAY-v2q5uL_DO4qgvKFInAM2ac1vCD8t0oQlYcYdhV3Ts5ZSiZ6Q1CDWlRs4T7r4TUukm49MOpbiTBvg-wQruPrTG8VoyJoWp4odq5uM_XPh3S0ufgrkyQcXlgjw6i0anCZfwIIX4BLk7wrgl1bh83OfuBRJAkc8nAT7-eB6bi4m2Y3eO2M7IAaoEnJDEMhOuF4ntDT4ohUsCmA4s2qKAGOH2hAMHQ7iClxVTNCtyQTO9KOphDtU2xaF4ykawSlb_1iCPIb4MXS6u0VnYJA6dK09lbKIkEA2QcsLsG0fLC1Q2EUx6lvxnFOG5O0jUbzeiUor7xrFGfhJzyMTGUaXBmN5WuTlolP59KFdQ0ZMbFrY1YDF6PUMqGUiMaLHf3Qs6Zc3-Uim99eHlS2J49ni2QxlZmfHYLokdG1RTw1cx5Tt8i_M92l08tHhprVJ2t1WdG-DOkG1RX2wxKIvKVCMfc-4QrT8WARCHQ7PxfNQQVIzOexaJPlQqCVEqnMXlxPZaltfKZcACSN3SYuwOHsSpn3sEVFg-ScPGfUEE5nrQ6elT-OfNBf3uJft_C60t8poQpBRllhNp2Bmt8QLnfhOPE2noEi21WuClkGL8iMpTdNzoDVqU0GiZkeR9J6dDwn9RuJwm4iiHGn9ekPV6fWZDrAcDTZRNfLgRP7YWkZEbnzefKOQAMcK0rntcwcpikQVgmxrGJQ-Fc2VI0XQdBzzkkPhmWGPJT4BFmHCU338FJP59Nt5_ICIKWxtjrUj27Cpu02N7FqzvIhLcGnWYOGV5-dv_aMYj4FM8tpYGy3_cFRkU-oVcFO_d27aUVQ3YKBVAyefWMfLyEEJNZofHjUftBRjFQ3snxOv5tS0ud9RMmjrWBVGhHxUo_H04Zs_0mIm_a6stBU-isOStTEKo_XAi5pCHsh9QPD6EPSwTjBaTrxNYYwtaeZrGcsaQLuzGDZDLWjUevlTIF-bsQOXVPMlccbijBN5y13Zo21aFpWR7boHwZUnvkPZ0h-7euWEbAw3GBnUdvwk3jBLkKucwN9nJUTy8D_83mvz_7em6V1xcNaEyM_7x5gNd9x0KrvOJNFIh3OP_geUhrQ1yJvUZJuDmV7vnIOFVJyUNOyXjLr6zeX15t69v6w90Vz43-qtU1bxY1-nwbwhRxJvdypIZqp6TVpexeuiHQ_3P2RqxfEfwP-SWsNhn7m00?></g></svg>